<svg xmlns="http://www.w3.org/2000/svg" viewBox="0 0 512 512" width="512" height="512">
  <rect width="512" height="512" rx="96" fill="#0f172a" />
  <circle cx="256" cy="256" r="164" fill="#f8fafc" />
  <g fill="none" stroke="#0f172a" stroke-width="7" stroke-linecap="round">
    <path d="M256 196 L216 224 M256 196 L296 224 M216 224 L232 268 M296 224 L280 268 M232 268 L280 268" />
    <path d="M256 196 L256 150" />
    <path d="M216 224 L166 200" />
    <path d="M296 224 L346 200" />
    <path d="M232 268 L196 322" />
    <path d="M280 268 L316 322" />
  </g>
  <g fill="#0f172a">
    <polygon points="256,196 296,224 280,268 232,268 216,224" />
    <circle cx="256" cy="150" r="10" />
    <circle cx="166" cy="200" r="10" />
    <circle cx="346" cy="200" r="10" />
    <circle cx="196" cy="322" r="10" />
    <circle cx="316" cy="322" r="10" />
  </g>
  <rect x="96" y="440" width="320" height="14" rx="7" fill="#22c55e" />
</svg>
